<?xml version="1.0" encoding="UTF-8" standalone="no"?>
<svg
   xmlns:dc="http://purl.org/dc/elements/1.1/"
   xmlns:cc="http://creativecommons.org/ns#"
   xmlns:rdf="http://www.w3.org/1999/02/22-rdf-syntax-ns#"
   xmlns:svg="http://www.w3.org/2000/svg"
   xmlns="http://www.w3.org/2000/svg"
   xmlns:sodipodi="http://sodipodi.sourceforge.net/DTD/sodipodi-0.dtd"
   xmlns:inkscape="http://www.inkscape.org/namespaces/inkscape"
   id="icons"
   enable-background="new 0 0 64 64"
   height="512"
   viewBox="0 0 64 64"
   width="512"
   version="1.1"
   sodipodi:docname="cloud.svg"
   inkscape:version="0.92.5 (2060ec1f9f, 2020-04-08)">
  <metadata
     id="metadata4855">
    <rdf:RDF>
      <cc:Work
         rdf:about="">
        <dc:format>image/svg+xml</dc:format>
        <dc:type
           rdf:resource="http://purl.org/dc/dcmitype/StillImage" />
      </cc:Work>
    </rdf:RDF>
  </metadata>
  <defs
     id="defs4853" />
  <sodipodi:namedview
     pagecolor="#ffffff"
     bordercolor="#666666"
     borderopacity="1"
     objecttolerance="10"
     gridtolerance="10"
     guidetolerance="10"
     inkscape:pageopacity="0"
     inkscape:pageshadow="2"
     inkscape:window-width="1920"
     inkscape:window-height="970"
     id="namedview4851"
     showgrid="false"
     inkscape:zoom="0.32593203"
     inkscape:cx="305.43737"
     inkscape:cy="668.11041"
     inkscape:window-x="0"
     inkscape:window-y="27"
     inkscape:window-maximized="1"
     inkscape:current-layer="icons" />
  <g
     id="g6051"
     style="fill:#b3b3b3">
    <path
       id="path4826"
       d="m42 19.151c-.033.02-.071.025-.104.049l-1.997 1.5c-.441.332-.53.959-.199 1.4.196.262.497.399.801.399.209 0 .42-.065.6-.2l.069-.052c-.975 3.32-4.043 5.753-7.673 5.753-2.425 0-4.691-1.083-6.22-2.971-.347-.429-.978-.495-1.406-.148-.43.348-.496.978-.148 1.406 1.91 2.359 4.743 3.713 7.774 3.713 4.633 0 8.529-3.173 9.659-7.456l.044.059c.196.262.497.399.801.399.209 0 .42-.065.6-.2.441-.332.53-.959.199-1.4l-1.503-2.002c-.015-.02-.036-.028-.052-.046-.046-.053-.098-.095-.153-.137-.05-.037-.097-.074-.151-.102-.056-.028-.116-.044-.178-.062-.065-.019-.128-.035-.195-.04-.025 0-.047-.013-.071-.013-.042 0-.077.019-.117.023-.066.008-.13.018-.194.039-.067.023-.125.054-.186.089z"
       style="fill:#b3b3b3" />
    <path
       id="path4828"
       d="m60.496 26.998c0-5.191-3.979-9.469-9.048-9.95-.5-9.482-8.347-17.048-17.951-17.048-7.442 0-13.845 4.541-16.581 10.998h-.412c-7.168 0-13 5.833-13 13.002 0 5.396 3.305 10.031 7.996 11.995v3.066c-3.939.495-7 3.859-7.001 7.931.001 4.411 3.591 8 8.001 8 4.411 0 7.999-3.589 7.999-8 0-4.072-3.06-7.436-6.999-7.931v-2.426c.966.23 1.969.365 3.004.365h13.997v7.051c-5.046.504-9 4.773-9 9.949 0 5.514 4.486 10 10 10s10-4.486 10-10c0-5.176-3.954-9.445-9-9.949v-7.051h16.995v2.062c-3.939.495-7 3.859-7.001 7.931.001 4.411 3.591 8 8.001 8 4.411 0 7.999-3.589 7.999-8 0-4.072-3.06-7.436-6.999-7.931v-2.112c5.046-.504 9-4.774 9-9.952zm-41.997 19.994c0 3.309-2.691 6-5.999 6-3.309 0-6-2.691-6.001-6 .001-3.309 2.692-6 6.001-6 3.308 0 5.999 2.692 5.999 6zm21.002 7.008c0 4.411-3.589 8-8 8s-8-3.589-8-8 3.589-8 8-8 8 3.589 8 8zm-33.997-30c0-5.969 4.78-10.833 10.712-10.987-.458 1.586-.718 3.256-.718 4.987 0 .553.447 1 1 1s1-.447 1-1c0-8.822 7.177-16 15.999-16s15.999 7.178 15.999 16c0 .553.447 1 1 1h.001c4.411 0 7.999 3.588 7.999 7.998 0 4.412-3.588 8.002-7.999 8.002h-33.993c-6.066 0-11-4.935-11-11zm50.991 22.992c0 3.309-2.691 6-5.999 6-3.309 0-6-2.691-6.001-6 .001-3.309 2.692-6 6.001-6 3.308 0 5.999 2.692 5.999 6z"
       style="fill:#b3b3b3" />
    <path
       id="path4830"
       d="m33.792 56.703c.195.195.451.293.707.293s.512-.098.707-.293l1.993-1.992c.002-.002.004-.002.006-.004.195-.195.293-.452.293-.708s-.098-.513-.293-.708c-.002-.002-.004-.002-.006-.004l-1.993-1.994c-.391-.391-1.023-.391-1.414 0s-.391 1.023 0 1.414l1.291 1.292-1.291 1.29c-.391.391-.391 1.024 0 1.414z"
       style="fill:#b3b3b3" />
    <path
       id="path4832"
       d="m29.208 51.293c-.391-.391-1.023-.391-1.414 0l-1.988 1.99c-.004.004-.009.004-.012.008-.196.196-.293.452-.292.709-.001.257.096.514.292.709.003.004.008.004.012.008l1.988 1.988c.195.195.451.293.707.293s.512-.098.707-.293c.391-.391.391-1.023 0-1.414l-1.291-1.291 1.291-1.293c.391-.391.391-1.024 0-1.414z"
       style="fill:#b3b3b3" />
    <path
       id="path4834"
       d="m30.259 58.972c.081.021.163.03.243.03.448 0 .855-.303.969-.758l1.999-8.002c.135-.535-.191-1.078-.728-1.212-.538-.137-1.079.191-1.212.728l-1.999 8.002c-.135.535.192 1.078.728 1.212z"
       style="fill:#b3b3b3" />
    <path
       id="path4836"
       d="m52.784 48.707c.195.195.451.293.707.293s.512-.098.707-.293l.995-.994c.002-.002.004-.002.006-.004.195-.195.293-.452.293-.708s-.098-.513-.293-.708c-.002-.002-.004-.002-.006-.004l-.99-.99c-.391-.391-1.023-.391-1.414 0s-.391 1.023 0 1.414l.288.288-.293.292c-.39.39-.39 1.023 0 1.414z"
       style="fill:#b3b3b3" />
    <path
       id="path4838"
       d="m48.205 45.295c-.391-.391-1.023-.391-1.414 0l-.995.994c-.002.002-.004.002-.006.004-.195.195-.293.452-.293.708s.098.513.293.708c.002.002.004.002.006.004l.995.994c.195.195.451.293.707.293s.512-.098.707-.293c.391-.391.391-1.024 0-1.414l-.292-.292.292-.292c.391-.39.391-1.023 0-1.414z"
       style="fill:#b3b3b3" />
    <path
       id="path4840"
       d="m50.023 44.754-.998 3.998c-.133.536.192 1.079.729 1.213.081.02.163.029.243.029.448 0 .855-.304.97-.758l.998-3.998c.133-.536-.192-1.079-.729-1.213-.538-.131-1.079.194-1.213.729z"
       style="fill:#b3b3b3" />
    <path
       id="path4842"
       d="m14.788 48.707c.195.195.451.293.707.293s.512-.098.707-.293l.995-.994c.002-.002.004-.002.006-.004.195-.195.293-.452.293-.708s-.098-.513-.293-.708c-.002-.002-.004-.002-.006-.004l-.99-.99c-.391-.391-1.023-.391-1.414 0s-.391 1.023 0 1.414l.288.288-.293.292c-.391.39-.391 1.023 0 1.414z"
       style="fill:#b3b3b3" />
    <path
       id="path4844"
       d="m10.209 45.295c-.391-.391-1.023-.391-1.414 0l-.995.994c-.002.002-.004.002-.006.004-.195.195-.293.452-.293.708s.098.513.293.708c.002.002.004.002.006.004l.995.994c.195.195.451.293.707.293s.512-.098.707-.293c.391-.391.391-1.024 0-1.414l-.292-.292.292-.292c.391-.39.391-1.023 0-1.414z"
       style="fill:#b3b3b3" />
    <path
       id="path4846"
       d="m12.027 44.754-.998 3.998c-.133.536.192 1.079.729 1.213.081.02.163.029.243.029.448 0 .855-.304.97-.758l.998-3.998c.133-.536-.192-1.079-.729-1.213-.535-.131-1.079.194-1.213.729z"
       style="fill:#b3b3b3" />
    <path
       id="path4848"
       d="m23.698 20.604c.001.001.001.001.002.001v.001c.013.017.032.022.046.038.068.081.15.144.241.199.026.017.045.046.072.06.008.004.017.002.024.006.127.059.266.096.415.096h.001c.104 0 .209-.017.311-.05.01-.003.017-.01.025-.013.006-.002.011-.007.017-.009.04-.015.073-.037.11-.057.045-.024.094-.039.136-.071.001 0 .001-.001.002-.002l1.997-1.504c.441-.332.529-.959.197-1.4-.331-.439-.956-.529-1.4-.197l-.067.051c.976-3.317 4.043-5.748 7.672-5.748 2.425 0 4.691 1.083 6.22 2.971.347.429.977.495 1.406.148.43-.348.496-.978.148-1.406-1.91-2.359-4.743-3.713-7.774-3.713-4.632 0-8.527 3.17-9.658 7.451l-.04-.053c-.33-.44-.958-.533-1.4-.201-.441.331-.532.958-.201 1.4z"
       style="fill:#b3b3b3" />
  </g>
  <g
     id="g6138"
     transform="matrix(0.7161022,0,0,0.7161022,-52.03725,36.969124)">
    <g
       id="g4861"
       transform="matrix(0.125,0,0,0.125,98.169546,-26.033898)">
      <g
         id="g4859">
        <path
           id="path4857"
           d="M 509.007,448.319 353.309,292.62 c -0.05,-0.051 -0.101,-0.102 -0.152,-0.152 l -32.153,-32.154 c -3.99,-3.99 -10.459,-3.99 -14.448,0 L 290.66,276.21 271.557,257.107 c 53.349,-60.825 51.03,-153.761 -6.979,-211.78 l -10e-4,-10e-4 c -60.448,-60.436 -158.802,-60.434 -219.25,0.002 -60.436,60.447 -60.436,158.801 0.001,219.249 30.224,30.217 69.923,45.327 109.624,45.327 36.511,0 73.016,-12.79 102.156,-38.348 l 19.102,19.102 -15.896,15.896 c -3.99,3.99 -3.99,10.457 -0.001,14.447 l 32.223,32.233 c 0.093,0.093 0.188,0.184 0.283,0.274 l 155.5,155.5 c 1.916,1.916 4.515,2.992 7.224,2.992 2.709,0 5.309,-1.077 7.224,-2.992 l 46.24,-46.24 c 1.916,-1.916 2.992,-4.515 2.992,-7.224 0,-2.709 -1.076,-5.31 -2.992,-7.225 z M 250.133,250.123 c -0.001,0.001 -0.003,0.002 -0.004,0.004 -0.001,10e-4 -0.002,0.003 -0.004,0.004 -52.481,52.467 -137.87,52.465 -190.349,-0.003 -52.47,-52.48 -52.47,-137.873 -0.001,-190.353 26.24,-26.236 60.709,-39.354 95.177,-39.354 34.468,0 68.936,13.118 95.175,39.352 52.471,52.48 52.472,137.87 0.006,190.35 z m 31.853,63.655 31.793,-31.793 17.785,17.785 -31.796,31.796 z M 455.543,487.335 314.22,346.011 346.012,314.219 487.335,455.542 Z"
           inkscape:connector-curvature="0" />
      </g>
    </g>
    <g
       id="g4867"
       transform="matrix(0.125,0,0,0.125,98.169546,-26.033898)">
      <g
         id="g4865">
        <path
           id="path4863"
           d="m 232.364,77.53 c -42.683,-42.683 -112.14,-42.684 -154.835,0 -42.683,42.693 -42.682,112.15 0,154.833 20.681,20.682 48.176,32.072 77.421,32.072 29.245,0 56.738,-11.389 77.412,-32.07 20.682,-20.677 32.073,-48.17 32.073,-77.415 0,-29.245 -11.389,-56.74 -32.071,-77.42 z m -14.449,140.385 c -16.817,16.823 -39.178,26.087 -62.965,26.087 -23.786,0 -46.15,-9.264 -62.973,-26.087 -34.717,-34.716 -34.716,-91.211 0,-125.936 17.365,-17.361 40.165,-26.038 62.973,-26.038 22.801,0 45.609,8.681 62.965,26.037 16.823,16.822 26.087,39.186 26.087,62.972 0,23.785 -9.263,46.145 -26.087,62.965 z"
           inkscape:connector-curvature="0" />
      </g>
    </g>
    <g
       id="g4873"
       transform="matrix(0.125,0,0,0.125,98.169546,-26.033898)">
      <g
         id="g4871">
        <path
           id="path4869"
           d="m 219.78,146.023 c -0.766,-5.591 -5.92,-9.504 -11.51,-8.734 -5.591,0.766 -9.5,5.919 -8.734,11.51 1.932,14.091 -2.721,27.931 -12.764,37.972 -3.991,3.99 -3.991,10.459 -0.002,14.449 1.995,1.995 4.61,2.993 7.225,2.993 2.614,0 5.229,-0.997 7.223,-2.991 14.605,-14.601 21.37,-34.719 18.562,-55.199 z"
           inkscape:connector-curvature="0" />
      </g>
    </g>
    <g
       id="g4879"
       transform="matrix(0.125,0,0,0.125,98.169546,-26.033898)">
      <g
         id="g4877">
        <path
           id="path4875"
           d="m 198.423,109.538 c -13.148,0 -13.169,20.433 0,20.433 13.148,0.001 13.169,-20.433 0,-20.433 z"
           inkscape:connector-curvature="0" />
      </g>
    </g>
    <g
       id="g4881"
       transform="matrix(0.125,0,0,0.125,98.169546,-26.033898)" />
    <g
       id="g4883"
       transform="matrix(0.125,0,0,0.125,98.169546,-26.033898)" />
    <g
       id="g4885"
       transform="matrix(0.125,0,0,0.125,98.169546,-26.033898)" />
    <g
       id="g4887"
       transform="matrix(0.125,0,0,0.125,98.169546,-26.033898)" />
    <g
       id="g4889"
       transform="matrix(0.125,0,0,0.125,98.169546,-26.033898)" />
    <g
       id="g4891"
       transform="matrix(0.125,0,0,0.125,98.169546,-26.033898)" />
    <g
       id="g4893"
       transform="matrix(0.125,0,0,0.125,98.169546,-26.033898)" />
    <g
       id="g4895"
       transform="matrix(0.125,0,0,0.125,98.169546,-26.033898)" />
    <g
       id="g4897"
       transform="matrix(0.125,0,0,0.125,98.169546,-26.033898)" />
    <g
       id="g4899"
       transform="matrix(0.125,0,0,0.125,98.169546,-26.033898)" />
    <g
       id="g4901"
       transform="matrix(0.125,0,0,0.125,98.169546,-26.033898)" />
    <g
       id="g4903"
       transform="matrix(0.125,0,0,0.125,98.169546,-26.033898)" />
    <g
       id="g4905"
       transform="matrix(0.125,0,0,0.125,98.169546,-26.033898)" />
    <g
       id="g4907"
       transform="matrix(0.125,0,0,0.125,98.169546,-26.033898)" />
    <g
       id="g4909"
       transform="matrix(0.125,0,0,0.125,98.169546,-26.033898)" />
  </g>
</svg>
