<?xml version="1.0" encoding="UTF-8" standalone="no"?>
<!-- Generator: Adobe Illustrator 19.0.0, SVG Export Plug-In . SVG Version: 6.00 Build 0)  -->

<svg
   xmlns:dc="http://purl.org/dc/elements/1.1/"
   xmlns:cc="http://creativecommons.org/ns#"
   xmlns:rdf="http://www.w3.org/1999/02/22-rdf-syntax-ns#"
   xmlns:svg="http://www.w3.org/2000/svg"
   xmlns="http://www.w3.org/2000/svg"
   xmlns:sodipodi="http://sodipodi.sourceforge.net/DTD/sodipodi-0.dtd"
   xmlns:inkscape="http://www.inkscape.org/namespaces/inkscape"
   version="1.1"
   id="Capa_1"
   x="0px"
   y="0px"
   viewBox="0 0 512 512"
   style="enable-background:new 0 0 512 512;"
   xml:space="preserve"
   sodipodi:docname="gear.svg"
   inkscape:version="0.92.5 (2060ec1f9f, 2020-04-08)"><metadata
   id="metadata43"><rdf:RDF><cc:Work
       rdf:about=""><dc:format>image/svg+xml</dc:format><dc:type
         rdf:resource="http://purl.org/dc/dcmitype/StillImage" /></cc:Work></rdf:RDF></metadata><defs
   id="defs41" /><sodipodi:namedview
   pagecolor="#ffffff"
   bordercolor="#666666"
   borderopacity="1"
   objecttolerance="10"
   gridtolerance="10"
   guidetolerance="10"
   inkscape:pageopacity="0"
   inkscape:pageshadow="2"
   inkscape:window-width="782"
   inkscape:window-height="480"
   id="namedview39"
   showgrid="false"
   inkscape:zoom="0.4609375"
   inkscape:cx="256"
   inkscape:cy="256"
   inkscape:window-x="238"
   inkscape:window-y="127"
   inkscape:window-maximized="0"
   inkscape:current-layer="g6" />
<g
   id="g6"
   style="">
	<g
   id="g4"
   style="fill:#999999;fill-opacity:1">
		<path
   d="M503.917,196.594l-46.833-11.719c-2.469-6.906-5.365-13.823-8.656-20.688l24.885-41.479    c2.521-4.198,1.854-9.573-1.604-13.031l-69.385-69.396c-3.458-3.469-8.854-4.115-13.031-1.604l-41.49,24.896    c-6.854-3.292-13.771-6.188-20.677-8.656L315.406,8.083C314.219,3.333,309.958,0,305.063,0h-98.125    c-4.896,0-9.156,3.333-10.344,8.083l-11.719,46.833c-6.906,2.469-13.823,5.365-20.677,8.656l-41.49-24.896    c-4.198-2.5-9.573-1.865-13.031,1.604l-69.385,69.396c-3.458,3.458-4.125,8.833-1.604,13.031l24.885,41.479    c-3.292,6.865-6.188,13.781-8.656,20.688L8.083,196.594C3.333,197.781,0,202.042,0,206.938v98.125    c0,4.896,3.333,9.156,8.083,10.344l46.833,11.719c2.469,6.906,5.365,13.823,8.656,20.688l-24.885,41.479    c-2.521,4.198-1.854,9.573,1.604,13.031l69.385,69.385c3.438,3.448,8.823,4.104,13.031,1.604l41.479-24.885    c6.865,3.292,13.781,6.188,20.688,8.656l11.719,46.833c1.188,4.75,5.448,8.083,10.344,8.083h98.125    c4.896,0,9.156-3.333,10.344-8.083l11.719-46.833c6.906-2.469,13.823-5.365,20.688-8.656l41.479,24.885    c4.198,2.51,9.573,1.865,13.031-1.604l69.385-69.385c3.458-3.458,4.125-8.833,1.604-13.031l-24.885-41.479    c3.292-6.865,6.188-13.781,8.656-20.688l46.833-11.719c4.75-1.188,8.083-5.448,8.083-10.344v-98.125    C512,202.042,508.667,197.781,503.917,196.594z M256,384c-70.583,0-128-57.417-128-128s57.417-128,128-128s128,57.417,128,128    S326.583,384,256,384z"
   id="path2"
   style="fill:#999999;fill-opacity:1" />
	</g>
</g>
<g
   id="g8">
</g>
<g
   id="g10">
</g>
<g
   id="g12">
</g>
<g
   id="g14">
</g>
<g
   id="g16">
</g>
<g
   id="g18">
</g>
<g
   id="g20">
</g>
<g
   id="g22">
</g>
<g
   id="g24">
</g>
<g
   id="g26">
</g>
<g
   id="g28">
</g>
<g
   id="g30">
</g>
<g
   id="g32">
</g>
<g
   id="g34">
</g>
<g
   id="g36">
</g>
</svg>